# xmcd
#
# Track frame offsets:
#	150
#	24400
#	33905
#	39290
#	60885
#	77595
#	82547
#	86035
#	105567
#	111907
#	136882
#	143827
#	162395
#	166255
#	200742
#	207615
#	230420
#	244715
#	274080
#
# Disc length: 3982 seconds
#
# Revision: 1
# Processed by: cddbd v1.5.2PL0 Copyright (c) Steve Scherf et al.
# Submitted via: EasyCDDAExtractor 10.5.1.1
#
DISCID=f00f8c13
DTITLE=T D Jakes - Woman Thou art Loosed
DYEAR=1997
DGENRE=Gospel
TTITLE0=Woman, Thou Art Loosed
TTITLE1=I Worship You Almighty God
TTITLE2=Introduction
TTITLE3=Worship Medley
TTITLE4=Sanctuary/Give Praise
TTITLE5=Introduction
TTITLE6=Medley What a Mighty God We Serve - Chorale
TTITLE7=What a mighty God We Serve
TTITLE8=Introduction
TTITLE9=I'm Your Next Husband
TTITLE10=Introduction
TTITLE11=Taking it Back
TTITLE12=Introduction
TTITLE13=Mercy Saw Me
TTITLE14=Introduction
TTITLE15=Come To Me
TTITLE16=Introduction
TTITLE17=Woman, Thou art Loosed - Soloist Brady and V Winans
TTITLE18=Woman, Thou Art Loosed Radio Single
EXTD=Gospel
EXTT0=
EXTT1=
EXTT2=
EXTT3=
EXTT4=
EXTT5=
EXTT6=
EXTT7=
EXTT8=
EXTT9=
EXTT10=
EXTT11=
EXTT12=
EXTT13=
EXTT14=
EXTT15=
EXTT16=
EXTT17=
EXTT18=
PLAYORDER=
